PathFileType	4	(X/Y/Z)	C:/Users/opensim2020/Desktop/walking_exp_matlab/subject01_walking11_straight_03.trc																																																																																																																																		
DataRate	CameraRate	NumFrames	NumMarkers	Units	OrigDataRate	OrigDataStartFrame	OrigNumFrames																																																																																																																														
100	100	6	44	mm	100	2828	338																																																																																																																														
Frame#	Time	LFHD			RFHD			LBHD			RBHD			C7			T10			CLAV			STRN			RBAK			LSHO			LUPA			LELB			LFRM			LWRA			LWRB			LFIN			RSHO			RUPA			RELB			RFRM			RWRA			RWRB			RFIN			LASI			RASI			LPSI			RPSI			LTHI			LKNE			LTIB			LANK			LHEE			LTOE			RTHI			RKNE			RTIB			RANK			RHEE			RTOE			*39			*40			*41			*42			*43		
		X1	Y1	Z1	X2	Y2	Z2	X3	Y3	Z3	X4	Y4	Z4	X5	Y5	Z5	X6	Y6	Z6	X7	Y7	Z7	X8	Y8	Z8	X9	Y9	Z9	X10	Y10	Z10	X11	Y11	Z11	X12	Y12	Z12	X13	Y13	Z13	X14	Y14	Z14	X15	Y15	Z15	X16	Y16	Z16	X17	Y17	Z17	X18	Y18	Z18	X19	Y19	Z19	X20	Y20	Z20	X21	Y21	Z21	X22	Y22	Z22	X23	Y23	Z23	X24	Y24	Z24	X25	Y25	Z25	X26	Y26	Z26	X27	Y27	Z27	X28	Y28	Z28	X29	Y29	Z29	X30	Y30	Z30	X31	Y31	Z31	X32	Y32	Z32	X33	Y33	Z33	X34	Y34	Z34	X35	Y35	Z35	X36	Y36	Z36	X37	Y37	Z37	X38	Y38	Z38	X39	Y39	Z39	X40	Y40	Z40	X41	Y41	Z41	X42	Y42	Z42	X43	Y43	Z43	X44	Y44	Z44
																																																																																																																																					
1	0	-863.20868	1670.70825	1398.51465	-838.75793	1682.95203	1509.20898	-961.04559	1595.50195	1419.95837	-937.53699	1606.75452	1537.92151	-951.98779	1423.09216	1448.40344	-987.46198	1132.1145	1459.28101	-803.48254	1362.99072	1455.7832	-762.68536	1204.46094	1448.61035	-1006.89886	1230.03821	1524.31726	-858.65527	1392.50134	1292.03931	-861.4317	1207.17749	1205.55725	-847.45001	1054.71191	1205.70898	-773.15851	964.83722	1189.08313	-661.38324	887.15338	1217.70789	-708.25879	861.37256	1191.79895	-637.55164	816.06128	1185.62781	-878.86627	1388.88428	1601.99084	-950.75647	1193.92078	1699.64172	-954.87164	1070.54138	1706.78027	-935.59863	954.35785	1746.88953	-856.99445	834.80542	1746.62683	-906.42047	838.92883	1778.57471	-872.40143	758.75269	1784.03528	-824.5592	917.42804	1353.30164	-810.65198	931.63861	1568.15894	-1007.02173	937.72034	1417.05835	-995.37036	943.25348	1562.99768	-889.59943	585.8089	1319.00903	-917.25397	452.85513	1338.23218	-992.99243	278.39743	1337.54626	-1051.66187	69.22672	1398.64478	-1099.34412	43.99038	1452.15564	-907.8042	28.11252	1389.42639	-786.57996	610.61847	1645.13684	-728.74005	465.48511	1616.06213	-727.23987	292.20984	1633.33679	-682.67493	85.8746	1594.71094	-715.98199	31.8377	1545.9342	-539.25476	89.61203	1591.83911	-862.34827	1711.15625	1488.53406	1973.09607	1023.35602	-3101.85449	2012.54126	1022.00977	-3140.77148	NaN	NaN	NaN	NaN	NaN	NaN
2	0.01	-857.63531	1670.34375	1399.98901	-833.0249	1682.48779	1510.71655	-955.284	1595.01294	1421.52612	-931.75098	1606.21667	1539.39392	-946.19879	1422.46411	1449.6156	-981.44366	1131.62402	1460.52356	-797.56024	1362.60315	1456.90222	-756.71838	1204.11084	1449.46313	-1000.8299	1229.30054	1525.3927	-852.88513	1392.26599	1293.28687	-855.5014	1207.0127	1206.65735	-841.41626	1054.53113	1206.65698	-767.11749	964.81683	1190.06079	-655.22131	887.18658	1218.51563	-702.05841	861.40533	1192.60559	-631.29254	816.08807	1186.48767	-872.96497	1388.28198	1603.21899	-944.96997	1193.12292	1700.47607	-948.96283	1069.78625	1707.54065	-929.89917	953.5589	1747.55701	-851.44678	833.8692	1747.25073	-900.73865	838.05591	1779.11047	-867.03406	757.86517	1784.50989	-818.76099	917.13342	1353.7771	-803.72736	931.09906	1568.61255	-1000.97223	937.37738	1418.41711	-988.59601	942.76929	1564.25537	-885.90588	585.65479	1319.37842	-914.42596	452.82928	1338.41345	-991.34192	278.95825	1337.68237	-1051.28052	70.13756	1398.59473	-1099.18958	45.08377	1452.08545	-907.71466	28.07892	1389.37427	-780.37164	609.76019	1645.11792	-723.01715	464.60565	1616.06445	-721.47186	290.82919	1633.01453	-677.38623	84.81638	1594.31714	-710.31708	30.08189	1545.23853	-533.9306	88.4976	1591.3584	-856.57904	1710.71472	1490.0957	1972.93787	1023.83252	-3102.06201	2012.49268	1022.12457	-3140.75806	NaN	NaN	NaN	NaN	NaN	NaN
3	0.02	-851.87018	1670.01392	1401.57043	-827.2511	1682.00745	1512.28992	-949.56824	1594.62097	1423.11035	-925.93774	1605.68103	1540.9397	-940.40735	1421.93738	1451.02625	-975.22906	1131.04895	1461.81567	-793.53888	1361.91479	1456.75745	-750.62891	1203.78491	1450.3855	-994.6637	1228.54395	1526.60205	-847.15295	1391.94214	1294.58789	-849.58698	1206.83777	1207.73706	-835.3974	1054.21631	1207.64063	-761.15784	964.6319	1191.09399	-649.00934	887.00537	1219.18274	-695.92102	861.21283	1193.49109	-625.24902	816.06683	1187.29529	-866.9184	1387.62976	1604.61951	-939.11029	1192.28894	1701.40088	-943.00977	1068.9845	1708.32129	-924.09381	952.69434	1748.24768	-845.82135	832.92981	1747.86914	-895.29163	836.99524	1779.61194	-861.58228	756.89539	1785.00537	-812.9071	916.76166	1354.30688	-796.90106	930.44067	1568.98792	-994.80951	937.00769	1419.85449	-981.75122	942.31543	1565.61694	-882.0274	585.48364	1319.78015	-911.33478	452.69894	1338.59888	-989.46442	279.45737	1337.83167	-1050.78625	70.76257	1398.3739	-1098.99841	46.30889	1451.8988	-907.71277	28.03166	1389.33447	-774.18243	608.93384	1645.04041	-717.44922	463.81107	1616.12842	-716.33936	289.61194	1632.85022	-672.82672	83.57052	1593.94995	-705.95319	29.0505	1544.70117	-529.39355	86.94407	1590.86597	-850.81409	1710.22876	1491.76331	1973.09607	1023.39142	-3101.83838	2012.49072	1022.02332	-3140.73413	NaN	NaN	NaN	NaN	NaN	NaN
4	0.03	-846.1225	1669.54175	1403.22656	-821.45868	1681.50305	1513.90955	-943.81909	1594.1665	1424.77185	-920.0965	1605.15198	1542.6156	-934.58148	1421.37988	1452.56104	-968.98914	1130.36792	1463.23511	-787.59509	1361.49243	1458.03003	-744.46533	1203.48059	1451.33533	-988.42737	1227.73596	1527.90625	-841.43176	1391.60095	1295.95972	-843.66022	1206.68701	1209.02722	-829.55182	1054.09937	1208.73877	-755.28394	964.46655	1192.07129	-643.08142	887.00073	1220.20557	-689.97223	861.16913	1194.3689	-619.2171	815.90601	1188.16211	-860.95746	1387.02161	1606.0127	-933.18939	1191.42139	1702.38208	-937.0047	1068.10645	1709.18127	-918.21289	951.81561	1748.96875	-840.05206	831.95624	1748.44434	-889.48132	836.07941	1780.25281	-855.90356	755.85974	1785.55164	-807.0022	916.48395	1354.82898	-789.88715	929.83478	1569.46289	-988.56952	936.64886	1421.43762	-974.84991	941.86041	1567.1228	-878.0238	585.35266	1320.18152	-908.11267	452.61014	1338.90625	-987.4812	279.97379	1337.93555	-1050.35156	71.57384	1398.27283	-1098.78784	47.61255	1451.78796	-907.73523	28.0706	1389.26086	-767.5481	608.14142	1645.23657	-711.87909	462.6022	1616.0238	-711.56909	288.44284	1632.66821	-669.14984	82.19059	1593.396	-702.57355	28.03569	1544.21082	-525.61121	84.97916	1590.46362	-845.14191	1709.70764	1493.39771	1973.06067	1023.39764	-3101.91162	2012.59204	1021.99841	-3140.57935	NaN	NaN	NaN	NaN	NaN	NaN
5	0.04	-840.46027	1669.18323	1404.95056	-815.6745	1681.03772	1515.6217	-938.1662	1593.81201	1426.49744	-914.21448	1604.6062	1544.35217	-928.64172	1420.83191	1454.23047	-962.64978	1129.7926	1464.81506	-781.60834	1361.08435	1459.39087	-738.22839	1203.13647	1452.34998	-982.09045	1226.89014	1529.35059	-835.69482	1391.33508	1297.49243	-837.64685	1206.51807	1210.30579	-823.68951	1053.89258	1209.85156	-749.41956	964.25433	1193.04834	-637.21826	886.59045	1220.90759	-684.09845	860.95221	1195.24304	-613.39197	815.79541	1188.97888	-854.88849	1386.39209	1607.47339	-927.10736	1190.57043	1703.47717	-930.88824	1067.30981	1710.19165	-912.20068	950.85553	1749.67163	-834.20532	830.92853	1749.0592	-883.67957	835.09259	1780.84094	-850.20099	754.88989	1786.0376	-801.04639	916.09058	1355.44971	-782.82642	929.14093	1569.99951	-982.25714	936.29303	1423.13977	-967.81274	941.22607	1568.67578	-873.85852	585.18823	1320.68665	-904.78198	452.62323	1339.18506	-985.41736	280.56741	1338.03613	-1049.70374	72.65586	1398.23718	-1098.53918	49.01859	1451.60046	-907.62878	27.95488	1389.26831	-761.23175	607.22974	1645.1217	-706.32007	461.59702	1616.14941	-707.24066	287.25488	1632.54138	-666.10284	80.60838	1592.90967	-699.8725	26.83103	1543.76257	-522.62732	82.51172	1589.80603	-839.2699	1709.23376	1495.15662	1973.17554	1023.41052	-3101.8855	2012.50024	1021.97803	-3140.80908	NaN	NaN	NaN	NaN	NaN	NaN
6	0.05	-834.71082	1668.77637	1406.75806	-809.81964	1680.53284	1517.39148	-932.40381	1593.36145	1428.34094	-908.31683	1604.08032	1546.14172	-922.63098	1420.19727	1455.91174	-956.2132	1129.08887	1466.46204	-775.51288	1360.68811	1460.82019	-731.98883	1202.84973	1453.38135	-975.70154	1226.08313	1530.92688	-830.02112	1391.04456	1299.05139	-831.6825	1206.33228	1211.68396	-817.68701	1054.01282	1211.18774	-743.42871	964.05634	1194.01538	-631.5	886.4433	1222.0127	-678.36566	860.64136	1196.16516	-607.62195	815.43103	1189.85571	-848.6731	1385.68652	1609.08813	-920.96002	1189.72205	1704.65344	-924.54956	1066.34924	1710.94043	-906.12134	949.86804	1750.4762	-828.26587	829.88239	1749.65759	-877.77673	834.03455	1781.44397	-844.36591	753.83362	1786.60388	-794.92755	915.74274	1356.12097	-775.7049	928.45355	1570.60217	-975.80524	935.93207	1424.89514	-960.53375	940.59692	1570.32019	-869.45062	585.09045	1321.15613	-901.32068	452.60852	1339.474	-983.39838	281.22876	1338.30469	-1049.41687	73.70691	1398.0321	-1098.27148	50.46991	1451.45007	-907.63184	27.98861	1389.19946	-754.84546	606.40417	1645.17102	-701.03625	460.19458	1616.07507	-702.91296	285.58063	1632.24207	-663.61194	78.97073	1592.42798	-698.16577	25.61453	1543.30322	-520.08801	79.5424	1589.1676	-833.4375	1708.797	1496.98486	1972.98376	1023.86987	-3101.96631	2012.53137	1022.04877	-3140.82153	NaN	NaN	NaN	NaN	NaN	NaN
